<?xml version="1.0" encoding="utf-8"?>
<!-- Generator: Adobe Illustrator 27.5.0, SVG Export Plug-In . SVG Version: 6.00 Build 0)  -->
<svg version="1.1" id="_x2018_ëîé_x5F_1" xmlns="http://www.w3.org/2000/svg" xmlns:xlink="http://www.w3.org/1999/xlink"
	 x="0px" y="0px" viewBox="0 0 3200 2000" style="enable-background:new 0 0 3200 2000;" xml:space="preserve">
<rect x="0" style="fill:#FFFFFF;" width="3200" height="2000"/>
<g>
	<path style="fill:#EBF3FA;" d="M3076.574,1090.36c-0.725,21.395-2.333,44.535-4.835,68.752
		c-16.826,162.679-74.269,373.694-179.889,425.632c-4.377,2.161-8.839,4.035-13.375,5.633l-483.128,2.492l-616.147-1.725
		L401.658,1587.3c0,0-1.374-0.862-3.897-2.556c-11.565-7.774-47.177-33.194-84.428-74.492c-5.772-6.4-11.576-13.173-17.348-20.33
		c0-0.01-0.011-0.01-0.011-0.01c-5.889-7.316-12.939-15.58-20.745-24.931c-4.388-5.25-9.02-10.852-13.812-16.815
		c-16.155-20.063-34.238-44.258-51.617-73.469c-40.18-67.527-76.579-161.881-76.579-293.943c0-26.196,0.703-57.985,3.525-93.085
		c4.632-57.379,14.941-123.585,37.187-188.578c7.774-22.726,17.007-45.313,27.976-67.314c0-0.011,0-0.021,0.011-0.032
		c11.82-23.716,25.644-46.772,41.798-68.614c78.4-105.971,211.857-183.551,438.528-171.4
		c405.835,21.767,293.24-202.848,885.16-163.201c233.561,15.644,337.189,170.911,517.695,129.549
		c762.82-174.798,930.281,188.695,987.691,541.549C3076.521,1022.514,3077.819,1053.887,3076.574,1090.36z"/>
	<path style="fill:#9BCC8F;" d="M2068.474,1096.262c0,0,19.489-37.49-60.005-34.17c-120.965,5.051-60.02,80.202-104.991,84.013
		c-80.935,6.858-48.366,98.788-23.429,109.082c53.358,22.026,24.391,80.194,99.726,80.476
		C2187.492,1336.44,2068.474,1096.262,2068.474,1096.262z"/>
	<path style="fill:#9BCC8F;" d="M1815.708,1584.744c0,0,4.792-50.044,62.296-60.464c57.503-10.421,62.733-88.202,137.369-77.265
		s53.101,137.729,53.101,137.729H1815.708z"/>
	<path style="fill:#AEE0A2;" d="M1708.007,1584.744c0,0-1018.161,0-1317.027,0c-10.636-7.774-43.388-33.194-77.647-74.492
		c24.975-5.921,81.095-14.824,181.376-3.77c142.993,15.761,466.197-35.665,595.479,3.471
		c129.282,39.147,320.863-11.842,396.571,18.669c75.718,30.499,142.191,7.103,177.44,17.773
		C1699.457,1557.056,1708.007,1584.744,1708.007,1584.744z"/>
	<path style="opacity:0.95;fill:#F8FCFF;" d="M1148.704,606.47c0,0,36.794-67.485,124.778-59.987c0,0,127.738-112.48,263.955-14.997
		c0,0,144.797-24.154,252.03,20.914c71.495,30.048,95.109,61.569,95.109,61.569L1148.704,606.47z"/>
	<path style="opacity:0.95;fill:#F8FCFF;" d="M2378.775,658.212c0,0,24.176-44.319,81.99-39.395c0,0,83.935-73.868,173.44-9.849
		c0,0,95.144-15.863,165.605,13.734c46.979,19.733,62.495,40.433,62.495,40.433L2378.775,658.212z"/>
	<path style="opacity:0.95;fill:#F8FCFF;" d="M2034.386,894.492c0,0,18.474-44.319,62.649-39.394c0,0,64.136-73.868,132.527-9.849
		c0,0,72.7-15.863,126.54,13.734c35.897,19.733,47.753,40.434,47.753,40.434L2034.386,894.492z"/>
	<path style="fill:#F8FBFF;" d="M2273.978,574.417c0-15.301,12.404-27.706,27.706-27.706c15.301,0,27.705,12.404,27.705,27.706
		c0,15.301-12.404,27.706-27.705,27.706C2286.382,602.123,2273.978,589.719,2273.978,574.417z"/>
	<path style="opacity:0.95;fill:#F8FCFF;" d="M1784.303,710.601c0,0,15.522-27.175,52.642-24.155c0,0,53.891-45.292,111.358-6.039
		c0,0,61.088-9.727,106.328,8.421c30.162,12.1,40.125,24.792,40.125,24.792L1784.303,710.601z"/>
	<g>
		<path style="fill:#233862;" d="M1590.516,930.398c0,0-38.774-13.739-69.719,0.688c-30.945,14.427-58.661,142.356,36.134,158.619
			l0,0C1556.931,1089.705,1645.891,1175.651,1590.516,930.398z"/>
		<path style="fill:#ED975D;" d="M1600.85,1370.039c-0.864,7.87-0.113,19.831,1.656,33.915
			c6.965,55.798,29.697,144.903,29.697,144.903l28.479,3.454c-2.081-15.755,3.851-76.097,11.72-142.965
			c11.877-100.882,28.197-216.626,28.197-216.626s-61.999-51.24-98.532-37.086
			C1565.533,1169.804,1605.139,1330.943,1600.85,1370.039z"/>
		<path style="fill:#DFEBFD;" d="M1602.506,1403.954c6.965,55.798,29.697,144.903,29.697,144.903l28.479,3.454
			c-2.081-15.755,3.851-76.097,11.72-142.965c-10.135,1.784-37.637,5.322-60.639-3.341
			C1608.225,1404.662,1605.153,1404.039,1602.506,1403.954z"/>
		<path style="fill:#2C3A64;" d="M1628.588,778.588c0,0,15.011-7.206,31.862,0c16.85,7.206,29.118,37.888,21.569,66.545
			c-7.55,28.657,17.93,29.14,6.134,52.123c-4.184,8.151-59.566,15.085-61.456-16.656c-1.171-19.666,16.632-20.638,11.441-42.008
			C1632.949,817.221,1628.588,778.588,1628.588,778.588z"/>
		<path style="fill:#FFB27D;" d="M1549.071,1363.938c-1.67,9.64-1.217,25.79,0.396,44.63
			c4.841,56.874,20.298,138.166,20.298,138.166l28.168,6.511c-1.076-15.556,8.125-74.086,19.732-139.566
			c18.048-101.858,41.898-220.562,41.898-220.562s-58.729-54.978-96.069-43.088
			C1526.169,1161.905,1555.752,1325.183,1549.071,1363.938z"/>
		<path style="fill:#212D4C;" d="M1660.339,1546.692c0,0,6.769,12.426,19.66,15.312c8.121,1.817,15.059,6.088,19.357,12.046
			c3.633,5.035,0.051,12.068-6.158,12.033l-65.519-0.374c-5.58-0.031-9.906-4.87-9.316-10.419c0.516-4.851,1.059-10.5,1.305-14.833
			c0.538-9.46,10.787-17.959,10.787-17.959s8.994,5.161,12.463,5.769C1650.466,1549.588,1660.339,1546.692,1660.339,1546.692z"/>
		<path style="fill:#2B478B;" d="M1559.212,1102.797c0,0-42.609,78.234-50.743,183.973c0,0,114.398,45.316,215.806,6.972
			l-17.541-187.017C1706.734,1106.725,1634.355,1132.624,1559.212,1102.797z"/>
		<path style="fill:#FFB27D;" d="M1672.826,915.441c0,0,42.814,72.187,51.449,131.042c0,0-20.824,28.097-29.293,8.368
			C1686.513,1035.122,1625.724,929.506,1672.826,915.441z"/>
		<path style="fill:#2C3A64;" d="M1664.675,787.302c-0.461-0.764-19.619-31.058-55.431-37.101
			c-29.012-4.896-56.167,15.599-60.629,44.682c-4.484,29.224,0.088,67.092,47.768,80.732L1664.675,787.302z"/>
		<path style="fill:#FFB27D;" d="M1655.92,917.525l-53.957,32.047l-13.634-37.98c0,0,6.254-13.84,8.073-35.978
			c0.759-9.309,0.743-20.086-0.87-31.921l46.917,20.379c0,0-0.816,4.27-1.147,10.517c-0.348,6.749-0.119,15.804,2.33,24.264
			C1645.743,906.115,1649.486,912.939,1655.92,917.525z"/>
		<path style="fill:#ED975D;" d="M1643.614,898.851c-25.881,0.953-47.231-23.236-47.231-23.236l44.899-1.028
			C1640.934,881.337,1641.164,890.392,1643.614,898.851z"/>
		<path style="fill:#FFB27D;" d="M1655.231,883.658c0,0-50.673,16.887-71.059-22.966c-22-43.009-3.001-76.573,14.362-79.86
			c34.626-6.555,55.745,5.463,62.773,19.14C1668.336,813.649,1683.208,874.595,1655.231,883.658z"/>
		<path style="fill:#FFFFFF;" d="M1633.333,861.885c0,0,2.494,5.179,15.9,1.33c0,0,11.256-3.229,9.579-9.157
			C1658.813,854.059,1646.802,852.234,1633.333,861.885z"/>
		<path style="fill:#ED975D;" d="M1724.275,1046.482c0,0,4.067,55.723-35.59,99.622c0,0-10.825-13.03-9.46-17.075
			c1.365-4.045,16.886-66.151,28.223-74.985C1718.786,1045.209,1724.275,1046.482,1724.275,1046.482z"/>
		<path style="fill:#F99746;" d="M1706.734,1106.725c-12.398,4.427-24.332,7.471-35.672,9.435
			c-12.562,2.185-24.39,3.056-35.313,3.032c-9.992-0.022-19.219-0.802-27.55-1.986c-14.955-2.139-27.027-5.647-35.439-8.668
			c-8.75-3.138-13.549-5.74-13.549-5.74c0.104-0.674,0.104-1.801,0.012-3.323c-0.232-3.858-1.057-10.226-2.254-18.092
			c-0.082-0.522-0.163-1.058-0.244-1.592c-0.407-2.638-0.848-5.427-1.325-8.343c-6.065-37.09-17.092-93.12-17.092-93.12
			l-3.486-25.691c-1.65-12.235,4.288-24.099,14.722-30.223c1.15-0.686,2.371-1.29,3.637-1.824c4.636-1.929,8.772-3.265,13.014-4.369
			c6.298-1.65,12.816-2.777,21.508-4.578c0.14,0.127,0.279,0.255,0.43,0.383c2.661,2.371,6.019,4.996,9.888,7.46
			c9.412,5.972,21.868,10.911,34.824,8.377c13.943-2.73,16.686-10.249,15.93-18.266c3.545,0.36,6.821,0.744,9.842,1.162
			c17.918,2.429,32.094,16.326,34.952,34.162c2.114,13.235,4.52,37.694,6.925,68.299
			C1702.655,1040.667,1704.794,1073.051,1706.734,1106.725z"/>
		<path style="fill:#ED975D;" d="M1679.225,1129.029c0,0-20.392,9.423-13.463,19.466c6.929,10.042,20.781,4.035,22.923-2.391
			S1679.225,1129.029,1679.225,1129.029z"/>
		<path style="fill:#2C3A64;" d="M1619.728,785.564c0,0,4.804,47.538-40.295,64.383c-17.932,6.698-27.268-65.909,10.202-80.407
			c37.471-14.497,74.422,2.72,78.84,28.064c4.417,25.344,1.053,30.629,1.053,30.629S1651.988,780.017,1619.728,785.564z"/>
		<path style="fill:#FFB27D;" d="M1661.89,1140.325c0,0,25.384-0.183,26.799,5.784c1.415,5.967-6.526,24.642-25.089,18.134
			s-18.094-10.574-18.094-10.574L1661.89,1140.325z"/>
		<path style="fill:#2C3A64;" d="M1563.757,778.991c0,0-15.012-8.114-31.863,0c-16.851,8.114-29.119,42.662-21.569,74.93
			c7.549,32.268-17.929,32.812-6.134,58.69c4.184,9.178,59.566,16.986,61.456-18.755c1.171-22.143-16.632-23.237-11.442-47.301
			C1559.395,822.492,1563.757,778.991,1563.757,778.991z"/>
		<path style="fill:#FFFFFF;" d="M1549.468,1408.568c4.841,56.874,20.298,138.166,20.298,138.166l28.168,6.511
			c-1.076-15.556,8.125-74.086,19.732-139.566C1602.634,1415.25,1574.961,1416.453,1549.468,1408.568z"/>
		<path style="fill:#2C3A64;" d="M1598.73,1546.692c0,0,6.768,12.426,19.661,15.312c8.121,1.817,15.059,6.088,19.356,12.046
			c3.633,5.035,0.052,12.068-6.157,12.033l-65.519-0.374c-5.58-0.031-9.906-4.87-9.316-10.419c0.516-4.851,1.058-10.5,1.305-14.833
			c0.539-9.46,10.787-17.959,10.787-17.959s8.995,5.161,12.463,5.769C1588.857,1549.588,1598.73,1546.692,1598.73,1546.692z"/>
		<path style="fill:#ED7D2B;" d="M1616.369,1106.666c0,0-3.301,5.159-8.169,10.539c-14.955-2.139-27.027-5.647-35.439-8.668
			c-14.908-36.148-22.596-95.222-22.596-95.222L1616.369,1106.666z"/>
		<path style="fill:#F99746;" d="M1687.921,929.777c0,0,44.225,104.155,42.482,132.098c-1.743,27.942-19.71,68.608-26.145,70.751
			c-6.433,2.143-6.433,2.143-6.433,2.143s-16.033-3.939-16.419-13.552c0,0,12.977-59.867,9.878-68.775
			C1688.186,1043.533,1687.921,929.777,1687.921,929.777z"/>
		<g>
			<path style="fill:#ED7D2B;" d="M1701.75,1046.419c-9.981-18.235-16.663-72.897-16.663-72.897l11.039,109.324
				C1696.126,1082.846,1706.707,1055.476,1701.75,1046.419z"/>
			<path style="fill:#ED7D2B;" d="M1662.142,1102.797c-17.177-3.889-43.136-62.642-43.136-62.642l-26.76,30.513l43.504,48.523
				c10.923,0.023,22.751-0.848,35.313-3.032l12.281-2.231l12.782-31.082l-2.454-24.3
				C1697.868,1101.146,1676.667,1106.085,1662.142,1102.797z"/>
		</g>
		<g>
			<path style="fill:#FFFFFF;" d="M1632.049,927.942c0,0-29.375-13.452-39.837-27.938c0,0-11.718,6.725-12.732,14.421
				C1578.467,922.123,1616.438,935.083,1632.049,927.942z"/>
			<path style="fill:#FFFFFF;" d="M1644.904,902.634c0,0-1.609,20.054-12.855,25.309c0,0,21.21-1.268,28.488-16.875
				C1660.537,911.067,1652.424,902.428,1644.904,902.634z"/>
			<path style="fill:#2C3A64;" d="M1630.864,927.879c0-1.048,0.85-1.898,1.897-1.898c1.048,0,1.897,0.85,1.897,1.898
				c0,1.048-0.85,1.898-1.897,1.898C1631.714,929.777,1630.864,928.927,1630.864,927.879z"/>
		</g>
		<g>
			<path style="fill:#2B478B;" d="M1609.339,1018.021c-9.772,28.537-29.63,51.684-52.613,61.77
				c-0.407-2.638-0.848-5.427-1.325-8.343c20.125-9.598,37.473-30.455,46.246-56.064c8.715-25.459,6.972-50.383-4.787-68.393
				c-14.304-21.891-37.38-24.529-47.315-24.576c1.15-0.686,2.371-1.29,3.637-1.824c4.636-1.929,8.772-3.265,13.014-4.369
				c12.154,2.928,26.807,9.969,37.474,26.318C1616.811,962.665,1618.879,990.18,1609.339,1018.021z"/>
		</g>
		<path style="fill:#FFB27D;" d="M1593.438,944.137c0,0,19.59,78.735,20.394,111.275c0,0,45.39,79.273,48.056,84.91
			c2.665,5.639-16.384,13.345-16.384,13.345s-56.943-60.728-67.92-86.25c-10.977-25.521-39.411-103.89-33.528-123.28
			C1552.55,916.134,1593.438,944.137,1593.438,944.137z"/>
		<path style="fill:#F99746;" d="M1539.62,939.731c-3.703,20.975,18.426,114.259,30.046,138.66
			c11.62,24.401,32.3,53.857,56.818,54.234c0,0,18.816-4.55,20.893-18.354c0,0-10.705-36.768-20.388-52.397
			c-9.683-15.631-24.962-114.604-34.645-120.802C1582.662,934.876,1543.323,918.756,1539.62,939.731z"/>
	</g>
	<g>
		<path style="fill:#233862;" d="M1283.331,897.671c0,0-56.623-22.65-101.812,1.134c-45.19,23.784-85.663,234.691,52.768,261.503
			l0,0C1234.286,1160.309,1364.194,1302.001,1283.331,897.671z"/>
		<path style="fill:#FFB27D;" d="M1438.197,1230.029l-3.459-12.506c0,0-16.599-1.665-16.804-1.34l1.475,37.747
			c0,0,8.563-1.902,11.696-5.496l6.079-10.131C1438.681,1235.932,1438.197,1230.029,1438.197,1230.029z"/>
		<path style="fill:#FFFFFF;" d="M1395.125,906.822c0,0,20.289-1.046,31.65,25.694c23.546,55.422,13.319,175.051,11.892,192.176
			c0,0,8.087,34.011-3.929,92.831l-15-0.835c0,0-24.776-222.307-21.832-245.272C1400.85,948.452,1395.125,906.822,1395.125,906.822z
			"/>
		<path style="fill:#233862;" d="M1225.909,1561.013l7.676,27.707h64.853C1298.438,1588.72,1317.746,1553.297,1225.909,1561.013z"/>
		<path style="fill:#233862;" d="M1364.978,1561.013l7.675,27.707h64.854C1437.506,1588.72,1456.814,1553.297,1364.978,1561.013z"/>
		<path style="fill:#FFB27D;" d="M1367.796,904.935l-60.837,31.07l-8.004-40.241c0,0,5.644-15.44,7.923-39.753
			c0.977-10.338,1.357-22.332,0.407-35.438l49.576,25.371c0,0-1.14,4.396-1.926,10.935c-0.651,5.373-1.059,12.211-0.38,19.239
			C1355.559,886.728,1359.005,897.799,1367.796,904.935z"/>
		<path style="fill:#233862;" d="M1417.81,1153.112l-123.029,9.706c0,0-15.197,215.507,65.642,406.439l72.58-4.863L1417.81,1153.112
			z"/>
		<path style="fill:#2B478B;" d="M1226.892,1164.945c0,0-24.184,123.662-7.238,400.937h76.045l47.592-336.963
			c1.528-9.851,20.93-23.564,20.93-23.564l0.755-38.006L1226.892,1164.945z"/>
		<path style="fill:#F99746;" d="M1227.511,1002.571l7.072,50.184l-19.504,100.308c-1.731,8.906,4.729,17.307,13.78,17.924
			c37.039,2.524,126.56,6.237,187.331-10.964c8.102-2.293,13.482-9.947,12.814-18.341l-10.685-134.183l-3.759-47.208l-3.862-48.504
			c0,0-18.529-11.448-50.713-16.009c0.485,7.465-2.022,14.309-17.383,15.967c-18.043,2.074-31.619-6.099-41.614-13.771
			c-0.244-0.415-1.545-1.782-2.032-2.196c-10.971,1.037-23.62,2.955-34.466,5.122c-1.709,0.341-40.389,77.202-40.389,77.202
			L1227.511,1002.571z"/>
		<path style="fill:#2B478B;" d="M1215.079,1153.063c0,0,172.168-88.115,87.61-231.99c-4.053-6.896-10.829-19.5-19.359-23.402
			c-7.912,0.724-9.516,1.134-15.933,2.661c8.777,2.438,21.447,23.036,28.158,41.731c12.547,34.953,43.606,101.109-78.224,188.256
			L1215.079,1153.063z"/>
		<path style="fill:#FFB27D;" d="M1270.971,1048.366c1.908-0.14,17.902,0.463,17.902,0.463s7.956-29.955,30.027-29.955
			c0,0,10.32-1.01,7.153,7.346c-1.341,3.538-3.523,2.271-6.879,14.428c-3.356,12.157-7.004,15.317-18.299,21.72l-9.537,2.58
			C1291.336,1064.947,1265.956,1048.734,1270.971,1048.366z"/>
		<path style="fill:#ED975D;" d="M1354.934,880.665c-18.615,2.36-47.351-24.111-48.057-24.654c0,0,34.435,0.271,48.057,0.868
			C1354.283,862.252,1354.256,873.637,1354.934,880.665z"/>
		<path style="fill:#FFB27D;" d="M1369.654,867.804c0,0-75.58,9.21-77.192-44.036c-1.612-53.246,29.889-87.738,50.916-87.344
			c41.929,0.786,48.846,17.73,53.707,35.372C1401.946,789.438,1404.448,864.05,1369.654,867.804z"/>
		<path style="fill:#FFFFFF;" d="M1354.654,838.595c0,0,1.38,5.566,15.255,4.541c0,0,11.65-0.858,11.22-6.988
			C1381.129,836.147,1369.773,831.917,1354.654,838.595z"/>
		<g>
			<path style="fill:#2C3A64;" d="M1308.892,856.092c0,0-6.44-18.962-5.626-29.601c0,0-15.112-19.269-6.307-24.038
				c8.805-4.769,13.556,6.632,15.574,4.394c2.018-2.238,5.167-40.101,15.86-38.905c10.694,1.196,59.102,14.978,76.444,0.022
				c17.343-14.956-33.58-74.912-104.883-52.341C1228.653,738.194,1242.857,816.503,1308.892,856.092z"/>
			<path style="fill:#2C3A64;" d="M1264.78,746.714c0,0-3.23-9.633,0.238-16.514c0,0,0.17,9.477,3.892,13.695
				C1272.631,748.113,1264.78,746.714,1264.78,746.714z"/>
			<path style="fill:#2C3A64;" d="M1266.264,739.977c0,0-8.82-1-12.984,5.783c0,0,6.212-4.201,12.494,0.254L1266.264,739.977z"/>
		</g>
		<path style="fill:#FFFFFF;" d="M1264.489,900.899c0,0-14.483-0.816-40.389,42.411c-13.844,23.1-72.875,132.794-42.481,144.71
			c30.394,11.917,91.579-0.083,107.253-16.674l-8.869-25.523c0,0-42.409,1.925-42.156-0.354c0.253-2.279,9.509-23.966,21.614-41.032
			C1300.874,946.053,1264.489,900.899,1264.489,900.899z"/>
		<path style="fill:#FFFFFF;" d="M1342.601,911.744c0,0-29.796-13.421-40.257-27.907c0,0-10.799,6.258-11.812,13.954
			C1289.519,905.487,1326.991,918.884,1342.601,911.744z"/>
		<path style="fill:#FFFFFF;" d="M1356.56,886.96c0,0-2.078,20.91-13.959,24.784c0,0,21.709,1.553,28.987-14.054
			C1371.588,897.69,1364.079,886.754,1356.56,886.96z"/>
		<path style="fill:#ED7D2B;" d="M1358.619,993.292c0,2.474-1.649,4.479-3.684,4.479c-2.035,0-3.684-2.005-3.684-4.479
			c0-2.473,1.65-4.478,3.684-4.478C1356.969,988.814,1358.619,990.819,1358.619,993.292z"/>
		<path style="fill:#ED7D2B;" d="M1358.619,1053.308c0,2.473-1.649,4.478-3.684,4.478c-2.035,0-3.684-2.005-3.684-4.478
			c0-2.474,1.65-4.479,3.684-4.479C1356.969,1048.829,1358.619,1050.834,1358.619,1053.308z"/>
		<path style="fill:#ED7D2B;" d="M1358.619,1118.055c0,2.473-1.649,4.479-3.684,4.479c-2.035,0-3.684-2.006-3.684-4.479
			c0-2.474,1.65-4.479,3.684-4.479C1356.969,1113.576,1358.619,1115.581,1358.619,1118.055z"/>
		<polygon style="fill:#FFFFFF;" points="1434.738,1217.523 1438.704,1206.179 1419.385,1205.033 1419.738,1216.688 		"/>
		<path style="fill:#FFB27D;" d="M1288.291,1043.172c0,0,3.097-14.428,2.421-17.805c-0.675-3.378,5.913-0.818,5.898,6.171
			c-0.004,2.202-1.857,4.306-1.857,4.306l-3.447,13.835L1288.291,1043.172z"/>
		<path style="fill:#D7E9FF;" d="M1288.291,1043.172l-17.291,3.77l3.152,20.985h12.833l-7.34,10.434l3.288,1.387l17.94-17.38
			C1300.874,1062.367,1291.286,1052.357,1288.291,1043.172z"/>
	</g>
	<g>
		<path style="fill:#F99746;" d="M576.541,985.976l-0.788-4.025l-0.096-0.543l-34.6-179.164v-20.298l-4.473-14.345v-0.011
			l-4.611-14.813l-6.038-19.403l-0.5-1.598H201.909c-10.969,22.001-20.202,44.589-27.976,67.314
			c-22.246,64.993-32.555,131.199-37.187,188.578c-2.822,35.1-3.525,66.889-3.525,93.085c0,132.063,36.399,226.416,76.579,293.943
			c17.379,29.211,35.462,53.406,51.617,73.469c4.792,5.964,9.424,11.565,13.812,16.815h283.527c10.276,0,18.743-7.816,18.743-17.305
			V990.981L576.541,985.976z"/>
		<path style="fill:#ED7D2B;" d="M502.656,816.63v613.997c0,9.69-7.849,17.539-17.54,17.539H261.417
			c-16.155-20.063-34.238-44.258-51.617-73.469V816.63c0-9.68,7.859-17.54,17.54-17.54h257.777
			C494.808,799.091,502.656,806.95,502.656,816.63z"/>
		<g>
			<path style="fill:#AEC3FF;" d="M327.785,1112.196h-79.983c-9.082,0-16.444-7.362-16.444-16.444V834.968
				c0-9.082,7.362-16.444,16.444-16.444h79.983c9.082,0,16.444,7.363,16.444,16.444v260.784
				C344.229,1104.834,336.867,1112.196,327.785,1112.196z"/>
			<path style="fill:#AEC3FF;" d="M459.922,1112.196H389.41c-11.697,0-21.18-9.483-21.18-21.181V839.704
				c0-11.698,9.483-21.181,21.18-21.181h70.512c11.697,0,21.18,9.483,21.18,21.181v251.312
				C481.102,1102.713,471.619,1112.196,459.922,1112.196z"/>
		</g>
		<path style="fill:#ED7D2B;" d="M525.84,663.131H243.718c-16.155,21.842-29.978,44.897-41.798,68.614h323.92
			c13.163,0,23.939-6.741,23.939-14.983v-38.626C549.779,669.883,539.002,663.131,525.84,663.131z"/>
		<path style="fill:#AEC3FF;" d="M575.76,981.945l-21.914,0.53c-22.232,0-30.037-9.514-30.037-31.745V797.516
			c0-8.597,6.969-15.566,15.566-15.566h1.68L575.76,981.945z"/>
		<g>
			<path style="fill:#ED7D2B;" d="M670.025,758.843c-0.642-3.585-3.973-6.067-7.616-6.067H465.557c-4.058,0-7.596,3.127-7.718,7.183
				c-0.126,4.197,3.239,7.639,7.407,7.639h180.862c5.005,0,9.062,4.058,9.062,9.063v54.234c0,4.058,3.127,7.597,7.183,7.718
				c4.197,0.126,7.638-3.238,7.638-7.407C669.991,831.205,670.203,759.833,670.025,758.843z"/>
			<path style="fill:#ED7D2B;" d="M637.055,975.711h52.698c4.093,0,7.411-3.317,7.411-7.41V821.735c0-4.093-3.318-7.411-7.411-7.411
				h-52.698c-4.093,0-7.411,3.318-7.411,7.411v146.565C629.645,972.394,632.962,975.711,637.055,975.711z"/>
		</g>
		<path style="fill:#F99746;" d="M1065.595,1213.881v218.603H577.5V987.665c0,0,392.689,21.216,429.785,66.772l16.66,45.556
			L1065.595,1213.881z"/>
		<g>
			<g>
				<path style="fill:#2B478B;" d="M999.855,1426.22c0,2.104-0.033,4.187-0.111,6.269H642.257c-0.078-2.082-0.111-4.164-0.111-6.269
					c0-27.686,6.29-53.909,17.531-77.298c28.826-60.078,90.233-101.562,161.329-101.562c71.086,0,132.492,41.483,161.318,101.562
					C993.564,1372.311,999.855,1398.534,999.855,1426.22z"/>
			</g>
			<g>
				
					<ellipse transform="matrix(0.7071 -0.7071 0.7071 0.7071 -768.0255 998.2664)" style="fill:#233862;" cx="821.001" cy="1426.222" rx="158.523" ry="158.523"/>
			</g>
			<circle style="fill:#DDE7FE;" cx="818.276" cy="1432.488" r="83.57"/>
		</g>
		<path style="fill:#AEC3FF;" d="M184.849,799.091v188.578h-48.103c4.632-57.379,14.941-123.585,37.187-188.578H184.849z"/>
		<path style="fill:#ED7D2B;" d="M1020.842,1225.632v43.466c0,11.581,9.389,20.969,20.97,20.969h22.336
			c11.582,0,20.97-9.388,20.97-20.969v-43.466c0-11.581-9.388-20.97-20.97-20.97h-22.336
			C1030.23,1204.662,1020.842,1214.051,1020.842,1225.632z"/>
		<path style="fill:#ED7D2B;" d="M1023.944,1099.992H577.5l-0.961-114.014c0,0,393.65,22.902,430.745,68.458L1023.944,1099.992z"/>
		<rect x="354.895" y="799.092" style="fill:#F99746;" width="2.67" height="649.075"/>
	</g>
	<g>
		<g>
			<rect x="1990.558" y="1107.848" style="fill:#F99746;" width="883.439" height="476.897"/>
			<path style="fill:#F99746;" d="M1999.516,1107.848h879.049c11.192,0,13.716-15.698,3.088-19.206l-446.06-147.22l-439.756,143.256
				C1982.981,1088.865,1985.996,1107.848,1999.516,1107.848z"/>
			<path style="fill:#FAAC6B;" d="M3072.457,1222.365c-14.325,138.503-63.23,318.16-153.154,362.379h-45.307v-362.379H3072.457z"/>
			<path style="fill:#D17530;" d="M3076.574,1163.83c-0.617,18.216-1.986,37.918-4.117,58.535h-198.461v-58.535H3076.574z"/>
			<g>
				<path style="fill:#FFE5D2;" d="M2885.765,1091.16l-51.019-17.997l-0.172-0.063l-396.325-139.818l-5.712-0.009l-407.594,141.921
					l-0.127,0.045l-32.776,11.415l-37.446,13.038l2.838,16.782h949.694l2.865-16.764L2885.765,1091.16z M2435.357,950.563
					l421.357,148.658h-848.246L2435.357,950.563z"/>
			</g>
			<rect x="1957.432" y="1305.35" style="fill:#FFE5D2;" width="951.826" height="44.225"/>
			<path style="fill:#FFE5D2;" d="M2008.652,1366.697v-13.468c0-2.02-1.637-3.655-3.655-3.655h-28.879
				c-2.018,0-3.655,1.636-3.655,3.655v13.468c0,2.019,1.637,3.655,3.655,3.655l0,0c2.02,0,3.655,1.637,3.655,3.655v186.303
				c0,2.019-1.636,3.655-3.655,3.655l0,0c-2.018,0-3.655,1.637-3.655,3.655v13.468c0,2.02,1.637,3.656,3.655,3.656h28.879
				c2.019,0,3.655-1.637,3.655-3.656v-13.468c0-2.019-1.637-3.655-3.655-3.655h-0.001c-2.019,0-3.655-1.637-3.655-3.655v-186.303
				c0-2.019,1.637-3.655,3.655-3.655h0.001C2007.016,1370.353,2008.652,1368.716,2008.652,1366.697z"/>
			<g>
				<path style="fill:#FFE5D2;" d="M2154.959,1370.353L2154.959,1370.353c2.019,0,3.655,1.637,3.655,3.655v186.303
					c0,2.019-1.637,3.655-3.655,3.655l0,0c-2.02,0-3.656,1.637-3.656,3.655v13.468c0,2.02,1.637,3.656,3.656,3.656h28.878
					c2.019,0,3.655-1.637,3.655-3.656v-13.468c0-2.019-1.637-3.655-3.655-3.655h-0.001c-2.019,0-3.655-1.637-3.655-3.655v-186.303
					c0-2.019,1.637-3.655,3.655-3.655h0.001c2.019,0,3.655-1.637,3.655-3.655v-13.468c0-2.02-1.637-3.655-3.655-3.655h-28.878
					c-2.02,0-3.656,1.636-3.656,3.655v13.468C2151.303,1368.716,2152.939,1370.353,2154.959,1370.353z"/>
				<path style="fill:#FFE5D2;" d="M2670.372,1370.353L2670.372,1370.353c2.02,0,3.656,1.637,3.656,3.655v186.303
					c0,2.019-1.637,3.655-3.656,3.655l0,0c-2.019,0-3.655,1.637-3.655,3.655v13.468c0,2.02,1.637,3.656,3.655,3.656h28.878
					c2.02,0,3.656-1.637,3.656-3.656v-13.468c0-2.019-1.637-3.655-3.656-3.655l0,0c-2.019,0-3.655-1.637-3.655-3.655v-186.303
					c0-2.019,1.637-3.655,3.655-3.655l0,0c2.02,0,3.656-1.637,3.656-3.655v-13.468c0-2.02-1.637-3.655-3.656-3.655h-28.878
					c-2.019,0-3.655,1.636-3.655,3.655v13.468C2666.717,1368.716,2668.354,1370.353,2670.372,1370.353z"/>
				<path style="fill:#FFE5D2;" d="M2889.058,1366.697v-13.468c0-2.02-1.637-3.655-3.655-3.655h-28.879
					c-2.019,0-3.655,1.636-3.655,3.655v13.468c0,2.019,1.637,3.655,3.655,3.655l0,0c2.019,0,3.655,1.637,3.655,3.655v186.303
					c0,2.019-1.637,3.655-3.655,3.655l0,0c-2.019,0-3.655,1.637-3.655,3.655v13.468c0,2.02,1.637,3.656,3.655,3.656h28.879
					c2.019,0,3.655-1.637,3.655-3.656v-13.468c0-2.019-1.637-3.655-3.655-3.655h-0.001c-2.019,0-3.655-1.637-3.655-3.655v-186.303
					c0-2.019,1.637-3.655,3.655-3.655h0.001C2887.421,1370.353,2889.058,1368.716,2889.058,1366.697z"/>
			</g>
			<g>
				<path style="fill:#D17530;" d="M2784.116,1165.433h-4.194c-14.248,0-25.797,11.55-25.797,25.797v65.555h54.95v-66.393
					C2809.075,1176.607,2797.9,1165.433,2784.116,1165.433z"/>
				<path style="fill:#FFE5D2;" d="M2784.115,1163.83h-4.197c-15.105,0-27.391,12.295-27.391,27.4v67.157h58.153v-67.992
					C2810.681,1175.744,2798.758,1163.83,2784.115,1163.83z M2755.728,1195.283h23.247v59.903h-23.247V1195.283z M2783.091,1255.187
					v-59.903h24.38v59.903H2783.091z M2807.471,1191.248h-51.743v-0.018c0-13.347,10.853-24.199,24.19-24.199h4.197
					c12.884,0,23.355,10.48,23.355,23.364V1191.248z"/>
			</g>
			<g style="opacity:0.5;">
				<path style="fill:#D17530;" d="M2954.56,1257.137h-3.016c-10.244,0-18.55,8.305-18.55,18.55v47.138h39.513v-47.74
					C2972.507,1265.172,2964.472,1257.137,2954.56,1257.137z"/>
				<path style="fill:#FFE5D2;" d="M2954.56,1255.984h-3.019c-10.861,0-19.695,8.841-19.695,19.702v48.29h41.815v-48.89
					C2973.661,1264.552,2965.088,1255.984,2954.56,1255.984z M2934.146,1278.601h16.717v43.074h-16.717V1278.601z
					 M2953.823,1321.675v-43.074h17.53v43.074H2953.823z M2971.354,1275.699h-37.207v-0.013c0-9.597,7.805-17.4,17.395-17.4h3.019
					c9.264,0,16.794,7.536,16.794,16.801V1275.699z"/>
			</g>
			<g style="opacity:0.5;">
				<path style="fill:#D17530;" d="M2954.56,1389.624h-3.016c-10.244,0-18.55,8.305-18.55,18.549v47.138h39.513v-47.739
					C2972.507,1397.659,2964.472,1389.624,2954.56,1389.624z"/>
				<path style="fill:#FFE5D2;" d="M2954.56,1388.472h-3.019c-10.861,0-19.695,8.841-19.695,19.702v48.289h41.815v-48.889
					C2973.661,1397.038,2965.088,1388.472,2954.56,1388.472z M2934.146,1411.088h16.717v43.074h-16.717V1411.088z
					 M2953.823,1454.162v-43.074h17.53v43.074H2953.823z M2971.354,1408.187h-37.207v-0.013c0-9.597,7.805-17.4,17.395-17.4h3.019
					c9.264,0,16.794,7.536,16.794,16.801V1408.187z"/>
			</g>
			<g>
				<path style="fill:#D17530;" d="M2604.752,1165.433h-4.195c-14.247,0-25.797,11.55-25.797,25.797v65.555h54.951v-66.393
					C2629.711,1176.607,2618.536,1165.433,2604.752,1165.433z"/>
				<path style="fill:#FFE5D2;" d="M2604.751,1163.83h-4.198c-15.104,0-27.391,12.295-27.391,27.4v67.157h58.154v-67.992
					C2631.316,1175.744,2619.394,1163.83,2604.751,1163.83z M2576.363,1195.283h23.247v59.903h-23.247V1195.283z M2603.727,1255.187
					v-59.903h24.381v59.903H2603.727z M2628.107,1191.248h-51.744v-0.018c0-13.347,10.853-24.199,24.189-24.199h4.198
					c12.884,0,23.356,10.48,23.356,23.364V1191.248z"/>
			</g>
			<g>
				<path style="fill:#D17530;" d="M2606.313,1401.34h-4.195c-14.247,0-25.797,11.549-25.797,25.797v65.555h54.951v-66.393
					C2631.271,1412.514,2620.097,1401.34,2606.313,1401.34z"/>
				<path style="fill:#FFE5D2;" d="M2606.312,1399.737h-4.198c-15.105,0-27.391,12.295-27.391,27.399v67.157h58.154v-67.991
					C2632.877,1411.651,2620.954,1399.737,2606.312,1399.737z M2577.924,1431.189h23.247v59.904h-23.247V1431.189z
					 M2605.287,1491.094v-59.904h24.38v59.904H2605.287z M2629.667,1427.155h-51.743v-0.019c0-13.346,10.853-24.198,24.189-24.198
					h4.198c12.884,0,23.355,10.48,23.355,23.364V1427.155z"/>
			</g>
			<g>
				<path style="fill:#D17530;" d="M2781.486,1401.34h-4.194c-14.247,0-25.797,11.549-25.797,25.797v65.555h54.951v-66.393
					C2806.446,1412.514,2795.271,1401.34,2781.486,1401.34z"/>
				<path style="fill:#FFE5D2;" d="M2781.486,1399.737h-4.198c-15.105,0-27.391,12.295-27.391,27.399v67.157h58.154v-67.991
					C2808.052,1411.651,2796.129,1399.737,2781.486,1399.737z M2753.098,1431.189h23.248v59.904h-23.248V1431.189z
					 M2780.462,1491.094v-59.904h24.38v59.904H2780.462z M2804.842,1427.155h-51.744v-0.019c0-13.346,10.854-24.198,24.19-24.198
					h4.198c12.884,0,23.355,10.48,23.355,23.364V1427.155z"/>
			</g>
			<g>
				<path style="fill:#D17530;" d="M2247.51,1401.34h-4.194c-14.247,0-25.797,11.549-25.797,25.797v65.555h54.95v-66.393
					C2272.469,1412.514,2261.294,1401.34,2247.51,1401.34z"/>
				<path style="fill:#FFE5D2;" d="M2247.509,1399.737h-4.197c-15.105,0-27.391,12.295-27.391,27.399v67.157h58.153v-67.991
					C2274.074,1411.651,2262.151,1399.737,2247.509,1399.737z M2219.121,1431.189h23.247v59.904h-23.247V1431.189z
					 M2246.484,1491.094v-59.904h24.381v59.904H2246.484z M2270.865,1427.155h-51.744v-0.019c0-13.346,10.853-24.198,24.19-24.198
					h4.197c12.884,0,23.356,10.48,23.356,23.364V1427.155z"/>
			</g>
			<g>
				<path style="fill:#D17530;" d="M2066.653,1401.34h-4.194c-14.247,0-25.797,11.549-25.797,25.797v65.555h54.951v-66.393
					C2091.613,1412.514,2080.438,1401.34,2066.653,1401.34z"/>
				<path style="fill:#FFE5D2;" d="M2066.653,1399.737h-4.198c-15.105,0-27.391,12.295-27.391,27.399v67.157h58.154v-67.991
					C2093.219,1411.651,2081.296,1399.737,2066.653,1399.737z M2038.265,1431.189h23.247v59.904h-23.247V1431.189z
					 M2065.629,1491.094v-59.904h24.38v59.904H2065.629z M2090.009,1427.155h-51.744v-0.019c0-13.346,10.854-24.198,24.19-24.198
					h4.198c12.884,0,23.355,10.48,23.355,23.364V1427.155z"/>
			</g>
			<g>
				<path style="fill:#D17530;" d="M2426.864,1165.433h-4.194c-14.248,0-25.797,11.55-25.797,25.797v65.555h54.95v-66.393
					C2451.823,1176.607,2440.648,1165.433,2426.864,1165.433z"/>
				<path style="fill:#FFE5D2;" d="M2426.863,1163.83h-4.197c-15.105,0-27.391,12.295-27.391,27.4v67.157h58.153v-67.992
					C2453.429,1175.744,2441.506,1163.83,2426.863,1163.83z M2398.476,1195.283h23.247v59.903h-23.247V1195.283z M2425.839,1255.187
					v-59.903h24.381v59.903H2425.839z M2450.22,1191.248h-51.744v-0.018c0-13.347,10.853-24.199,24.19-24.199h4.197
					c12.884,0,23.356,10.48,23.356,23.364V1191.248z"/>
			</g>
			<g>
				<path style="fill:#D17530;" d="M2246.022,1165.433h-4.194c-14.247,0-25.797,11.55-25.797,25.797v65.555h54.951v-66.393
					C2270.982,1176.607,2259.808,1165.433,2246.022,1165.433z"/>
				<path style="fill:#FFE5D2;" d="M2246.021,1163.83h-4.197c-15.105,0-27.391,12.295-27.391,27.4v67.157h58.154v-67.992
					C2272.588,1175.744,2260.665,1163.83,2246.021,1163.83z M2217.634,1195.283h23.247v59.903h-23.247V1195.283z M2244.998,1255.187
					v-59.903h24.38v59.903H2244.998z M2269.378,1191.248h-51.744v-0.018c0-13.347,10.854-24.199,24.19-24.199h4.197
					c12.885,0,23.356,10.48,23.356,23.364V1191.248z"/>
			</g>
			<g>
				<path style="fill:#D17530;" d="M2066.658,1165.433h-4.194c-14.247,0-25.797,11.55-25.797,25.797v65.555h54.95v-66.393
					C2091.617,1176.607,2080.442,1165.433,2066.658,1165.433z"/>
				<path style="fill:#FFE5D2;" d="M2066.657,1163.83h-4.197c-15.106,0-27.391,12.295-27.391,27.4v67.157h58.153v-67.992
					C2093.223,1175.744,2081.3,1163.83,2066.657,1163.83z M2038.27,1195.283h23.247v59.903h-23.247V1195.283z M2065.633,1255.187
					v-59.903h24.381v59.903H2065.633z M2090.014,1191.248h-51.744v-0.018c0-13.347,10.853-24.199,24.19-24.199h4.197
					c12.884,0,23.356,10.48,23.356,23.364V1191.248z"/>
			</g>
			<g>
				<rect x="2353.396" y="1430.026" style="fill:#FFE5D2;" width="141.914" height="131.369"/>
				<rect x="2359.854" y="1480.978" style="fill:#F1C3A1;" width="58.05" height="35.828"/>
				<rect x="2431.741" y="1480.978" style="fill:#F1C3A1;" width="58.05" height="35.828"/>
				<path style="fill:#D17530;" d="M2438.678,1493.261c-0.863-0.863-2.264-0.863-3.127,0s-0.863,2.264,0,3.127s2.264,0.863,3.127,0
					S2439.541,1494.124,2438.678,1493.261z"/>
				<path style="fill:#D17530;" d="M2409.325,1494.824c0-1.221,0.989-2.211,2.21-2.211s2.211,0.99,2.211,2.211
					s-0.99,2.211-2.211,2.211S2409.325,1496.045,2409.325,1494.824z"/>
				<path style="fill:#D17530;" d="M2497.639,1424.129h-146.57c9.079-28.164,38.442-48.781,73.291-48.781
					C2459.195,1375.348,2488.559,1395.965,2497.639,1424.129z"/>
				<g>
					<path style="fill:#FFE5D2;" d="M2499.221,1423.619c-9.484-29.403-40.266-49.931-74.864-49.931s-65.39,20.527-74.873,49.931
						l-0.698,2.167h151.134L2499.221,1423.619z M2383.366,1387.878c0.979-0.571,1.977-1.124,2.991-1.649
						c11.252-5.894,24.309-9.222,37.999-9.222c12.802,0,25.042,2.911,35.786,8.106c1.024,0.498,2.04,1.016,3.038,1.559
						c14.924,8.024,26.565,20.582,32.132,35.796H2353.4C2358.695,1407.997,2369.484,1395.93,2383.366,1387.878z"/>
				</g>
				<g>
					<polygon style="fill:#FFE5D2;" points="2424.778,1424.134 2382.254,1386.908 2384.512,1384.602 2424.652,1419.74 
						2461.825,1383.474 2464.21,1385.663 					"/>
				</g>
				<polygon style="fill:#FFE5D2;" points="2498.38,1425.739 2498.38,1424.134 2430.405,1424.134 2419.043,1424.134 
					2351.068,1424.134 2351.068,1425.739 2348.83,1425.739 2348.83,1564.072 2353.396,1564.072 2353.396,1430.026 
					2419.043,1430.026 2423.984,1430.026 2423.984,1565.595 2425.489,1565.595 2425.489,1430.026 2430.405,1430.026 
					2495.311,1430.026 2495.311,1564.072 2499.861,1564.072 2499.861,1425.739 				"/>
				<rect x="2359.854" y="1437.412" style="fill:#F1C3A1;" width="58.05" height="35.828"/>
				<rect x="2359.854" y="1524.28" style="fill:#F1C3A1;" width="58.05" height="35.828"/>
				<rect x="2431.741" y="1437.412" style="fill:#F1C3A1;" width="58.05" height="35.828"/>
				<rect x="2431.741" y="1524.28" style="fill:#F1C3A1;" width="58.05" height="35.828"/>
			</g>
			<g>
				<rect x="2306.928" y="1561.396" style="fill:#FFE5D2;" width="248.555" height="7.941"/>
				<rect x="2255.285" y="1568.862" style="fill:#FFE5D2;" width="351.84" height="7.941"/>
				<rect x="2217.253" y="1576.804" style="fill:#FFE5D2;" width="427.904" height="7.941"/>
			</g>
		</g>
		<g>
			<path style="fill:#FFE5D2;" d="M2329.118,1062.041l3.701-4.4c3.351,2.9,6.702,4.551,11.053,4.551c3.802,0,6.202-1.75,6.202-4.501
				c0-2.501-1.401-3.852-7.902-5.401c-7.452-1.751-11.653-3.951-11.653-10.503c0-6.001,5.002-10.152,11.953-10.152
				c5.102,0,9.152,1.55,12.703,4.401l-3.301,4.651c-3.15-2.351-6.302-3.602-9.503-3.602c-3.601,0-5.701,1.851-5.701,4.251
				c0,2.701,1.601,3.901,8.302,5.502c7.402,1.801,11.253,4.451,11.253,10.353c0,6.552-5.151,10.452-12.503,10.452
				C2338.37,1067.643,2333.32,1065.792,2329.118,1062.041z"/>
			<path style="fill:#FFE5D2;" d="M2361.928,1049.639c0-9.953,7.452-18.105,18.054-18.105c6.452,0,10.354,2.251,13.704,5.452
				l-3.951,4.551c-2.801-2.601-5.801-4.351-9.803-4.351c-6.701,0-11.553,5.501-11.553,12.453c0,6.852,4.852,12.453,11.553,12.453
				c4.302,0,7.052-1.751,10.053-4.552l3.951,4.001c-3.651,3.801-7.652,6.202-14.203,6.202
				C2369.529,1067.743,2361.928,1059.791,2361.928,1049.639z"/>
			<path style="fill:#FFE5D2;" d="M2400.387,1032.134h6.151v14.554h16.704v-14.554h6.152v35.009h-6.152v-14.754h-16.704v14.754
				h-6.151V1032.134z"/>
			<path style="fill:#FFE5D2;" d="M2436.847,1049.639c0-9.853,7.602-18.105,18.354-18.105c10.752,0,18.254,8.152,18.254,18.105
				c0,9.853-7.601,18.104-18.354,18.104C2444.349,1067.743,2436.847,1059.591,2436.847,1049.639z M2467.004,1049.639
				c0-6.802-4.951-12.453-11.903-12.453c-6.951,0-11.803,5.551-11.803,12.453c0,6.802,4.951,12.453,11.903,12.453
				S2467.004,1056.54,2467.004,1049.639z"/>
			<path style="fill:#FFE5D2;" d="M2479.357,1049.639c0-9.853,7.602-18.105,18.354-18.105c10.752,0,18.255,8.152,18.255,18.105
				c0,9.853-7.602,18.104-18.355,18.104C2486.859,1067.743,2479.357,1059.591,2479.357,1049.639z M2509.516,1049.639
				c0-6.802-4.951-12.453-11.904-12.453c-6.951,0-11.803,5.551-11.803,12.453c0,6.802,4.951,12.453,11.903,12.453
				S2509.516,1056.54,2509.516,1049.639z"/>
			<path style="fill:#FFE5D2;" d="M2523.419,1032.134h6.151v29.407h18.404v5.602h-24.556V1032.134z"/>
		</g>
	</g>
	<path style="fill:#2E3552;" d="M3051.057,1591.559H244.171c-1.675,0-3.046-1.371-3.046-3.046v-0.723
		c0-1.675,1.371-3.045,3.046-3.045h2806.886c1.676,0,3.046,1.37,3.046,3.045v0.723
		C3054.103,1590.188,3052.732,1591.559,3051.057,1591.559z"/>
</g>
</svg>
